<mxfile host="app.diagrams.net" modified="2023-10-31T05:15:15.807Z" agent="Mozilla/5.0 (Macintosh; Intel Mac OS X 10_15_7) AppleWebKit/537.36 (KHTML, like Gecko) Chrome/118.0.0.0 Safari/537.36" etag="32hu6I5FJxkNzofEL-GV" version="22.0.8" type="github">
  <diagram id="gtvhhWysRCpxjpLSjoP-" name="第 1 页">
    <mxGraphModel dx="1004" dy="616" grid="1" gridSize="10" guides="1" tooltips="1" connect="1" arrows="1" fold="1" page="1" pageScale="1" pageWidth="1169" pageHeight="827" math="0" shadow="0">
      <root>
        <mxCell id="0" />
        <mxCell id="1" parent="0" />
        <mxCell id="qmdW4s5YPuSo9OqXjj9D-3" value="" style="rounded=0;orthogonalLoop=1;jettySize=auto;html=1;fillColor=#ffe6cc;strokeColor=#d79b00;strokeWidth=3;sketch=1;curveFitting=1;jiggle=2;edgeStyle=orthogonalEdgeStyle;entryX=0;entryY=0.5;entryDx=0;entryDy=0;curved=1;" edge="1" parent="1" source="qmdW4s5YPuSo9OqXjj9D-1" target="qmdW4s5YPuSo9OqXjj9D-2">
          <mxGeometry relative="1" as="geometry" />
        </mxCell>
        <mxCell id="qmdW4s5YPuSo9OqXjj9D-7" style="edgeStyle=orthogonalEdgeStyle;shape=connector;curved=1;rounded=0;sketch=1;jiggle=2;curveFitting=1;orthogonalLoop=1;jettySize=auto;html=1;exitX=1;exitY=0.5;exitDx=0;exitDy=0;entryX=0;entryY=1;entryDx=0;entryDy=0;labelBackgroundColor=default;strokeColor=#d79b00;strokeWidth=3;align=center;verticalAlign=middle;fontFamily=Helvetica;fontSize=11;fontColor=default;endArrow=classic;fillColor=#ffe6cc;" edge="1" parent="1" source="qmdW4s5YPuSo9OqXjj9D-1" target="qmdW4s5YPuSo9OqXjj9D-4">
          <mxGeometry relative="1" as="geometry" />
        </mxCell>
        <mxCell id="qmdW4s5YPuSo9OqXjj9D-8" style="edgeStyle=orthogonalEdgeStyle;shape=connector;curved=1;rounded=0;sketch=1;jiggle=2;curveFitting=1;orthogonalLoop=1;jettySize=auto;html=1;exitX=1;exitY=0.5;exitDx=0;exitDy=0;entryX=0;entryY=0.5;entryDx=0;entryDy=0;labelBackgroundColor=default;strokeColor=#d79b00;strokeWidth=3;align=center;verticalAlign=middle;fontFamily=Helvetica;fontSize=11;fontColor=default;endArrow=classic;fillColor=#ffe6cc;" edge="1" parent="1" source="qmdW4s5YPuSo9OqXjj9D-1" target="qmdW4s5YPuSo9OqXjj9D-5">
          <mxGeometry relative="1" as="geometry" />
        </mxCell>
        <mxCell id="qmdW4s5YPuSo9OqXjj9D-1" value="&lt;h1&gt;社会存在&lt;/h1&gt;" style="rounded=1;whiteSpace=wrap;html=1;fillColor=#ffe6cc;strokeColor=#d79b00;sketch=1;curveFitting=1;jiggle=2;fontColor=#f2931e;" vertex="1" parent="1">
          <mxGeometry x="30" y="260" width="120" height="60" as="geometry" />
        </mxCell>
        <mxCell id="qmdW4s5YPuSo9OqXjj9D-2" value="&lt;h2&gt;自然地理环境&lt;/h2&gt;" style="rounded=1;whiteSpace=wrap;html=1;fillColor=#ffe6cc;strokeColor=#d79b00;sketch=1;curveFitting=1;jiggle=2;fontColor=#f2931e;" vertex="1" parent="1">
          <mxGeometry x="210" y="150" width="120" height="30" as="geometry" />
        </mxCell>
        <mxCell id="qmdW4s5YPuSo9OqXjj9D-4" value="&lt;h2&gt;人口因素&lt;/h2&gt;" style="rounded=1;whiteSpace=wrap;html=1;fillColor=#ffe6cc;strokeColor=#d79b00;sketch=1;curveFitting=1;jiggle=2;fontColor=#f2931e;" vertex="1" parent="1">
          <mxGeometry x="210" y="220" width="120" height="30" as="geometry" />
        </mxCell>
        <mxCell id="qmdW4s5YPuSo9OqXjj9D-12" value="" style="edgeStyle=orthogonalEdgeStyle;shape=connector;curved=1;rounded=0;sketch=1;jiggle=2;curveFitting=1;orthogonalLoop=1;jettySize=auto;html=1;labelBackgroundColor=default;strokeColor=#d79b00;strokeWidth=3;align=center;verticalAlign=middle;fontFamily=Helvetica;fontSize=12;fontColor=#f2931e;endArrow=classic;fillColor=#ffe6cc;" edge="1" parent="1" source="qmdW4s5YPuSo9OqXjj9D-5" target="qmdW4s5YPuSo9OqXjj9D-11">
          <mxGeometry relative="1" as="geometry" />
        </mxCell>
        <mxCell id="qmdW4s5YPuSo9OqXjj9D-13" value="" style="edgeStyle=orthogonalEdgeStyle;shape=connector;curved=1;rounded=0;sketch=1;jiggle=2;curveFitting=1;orthogonalLoop=1;jettySize=auto;html=1;labelBackgroundColor=default;strokeColor=#d79b00;strokeWidth=3;align=center;verticalAlign=middle;fontFamily=Helvetica;fontSize=12;fontColor=#f2931e;endArrow=classic;fillColor=#ffe6cc;" edge="1" parent="1" source="qmdW4s5YPuSo9OqXjj9D-5" target="qmdW4s5YPuSo9OqXjj9D-11">
          <mxGeometry relative="1" as="geometry" />
        </mxCell>
        <mxCell id="qmdW4s5YPuSo9OqXjj9D-14" value="" style="edgeStyle=orthogonalEdgeStyle;shape=connector;curved=1;rounded=0;sketch=1;jiggle=2;curveFitting=1;orthogonalLoop=1;jettySize=auto;html=1;labelBackgroundColor=default;strokeColor=#d79b00;strokeWidth=3;align=center;verticalAlign=middle;fontFamily=Helvetica;fontSize=12;fontColor=#f2931e;endArrow=classic;fillColor=#ffe6cc;" edge="1" parent="1" source="qmdW4s5YPuSo9OqXjj9D-5" target="qmdW4s5YPuSo9OqXjj9D-11">
          <mxGeometry relative="1" as="geometry" />
        </mxCell>
        <mxCell id="qmdW4s5YPuSo9OqXjj9D-5" value="&lt;h2 style=&quot;line-height: 50%;&quot;&gt;物质生产方式&lt;/h2&gt;&lt;div style=&quot;line-height: 0%;&quot;&gt;（决定性力量）&lt;/div&gt;" style="rounded=1;whiteSpace=wrap;html=1;fillColor=#ffe6cc;strokeColor=#d79b00;sketch=1;curveFitting=1;jiggle=2;fontColor=#f2931e;" vertex="1" parent="1">
          <mxGeometry x="210" y="290" width="120" height="60" as="geometry" />
        </mxCell>
        <mxCell id="qmdW4s5YPuSo9OqXjj9D-17" value="" style="edgeStyle=orthogonalEdgeStyle;shape=connector;curved=1;rounded=0;sketch=1;jiggle=2;curveFitting=1;orthogonalLoop=1;jettySize=auto;html=1;labelBackgroundColor=default;strokeColor=#d79b00;strokeWidth=3;align=center;verticalAlign=middle;fontFamily=Helvetica;fontSize=12;fontColor=#f2931e;endArrow=classic;fillColor=#ffe6cc;entryX=0;entryY=0.5;entryDx=0;entryDy=0;entryPerimeter=0;" edge="1" parent="1" source="qmdW4s5YPuSo9OqXjj9D-11" target="qmdW4s5YPuSo9OqXjj9D-16">
          <mxGeometry relative="1" as="geometry" />
        </mxCell>
        <mxCell id="qmdW4s5YPuSo9OqXjj9D-20" style="edgeStyle=orthogonalEdgeStyle;shape=connector;curved=1;rounded=0;sketch=1;jiggle=2;curveFitting=1;orthogonalLoop=1;jettySize=auto;html=1;exitX=1;exitY=0.5;exitDx=0;exitDy=0;entryX=0;entryY=0.5;entryDx=0;entryDy=0;labelBackgroundColor=default;strokeColor=#d79b00;strokeWidth=3;align=center;verticalAlign=middle;fontFamily=Helvetica;fontSize=12;fontColor=#f2931e;endArrow=classic;fillColor=#ffe6cc;" edge="1" parent="1" source="qmdW4s5YPuSo9OqXjj9D-11" target="qmdW4s5YPuSo9OqXjj9D-18">
          <mxGeometry relative="1" as="geometry" />
        </mxCell>
        <mxCell id="qmdW4s5YPuSo9OqXjj9D-21" style="edgeStyle=orthogonalEdgeStyle;shape=connector;curved=1;rounded=0;sketch=1;jiggle=2;curveFitting=1;orthogonalLoop=1;jettySize=auto;html=1;exitX=1;exitY=0.5;exitDx=0;exitDy=0;entryX=0;entryY=0.5;entryDx=0;entryDy=0;labelBackgroundColor=default;strokeColor=#d79b00;strokeWidth=3;align=center;verticalAlign=middle;fontFamily=Helvetica;fontSize=12;fontColor=#f2931e;endArrow=classic;fillColor=#ffe6cc;" edge="1" parent="1" source="qmdW4s5YPuSo9OqXjj9D-11" target="qmdW4s5YPuSo9OqXjj9D-19">
          <mxGeometry relative="1" as="geometry" />
        </mxCell>
        <mxCell id="qmdW4s5YPuSo9OqXjj9D-11" value="&lt;h3&gt;生产力&lt;/h3&gt;" style="whiteSpace=wrap;html=1;fillColor=#ffe6cc;strokeColor=#d79b00;fontColor=#f2931e;rounded=1;sketch=1;curveFitting=1;jiggle=2;" vertex="1" parent="1">
          <mxGeometry x="414" y="220" width="120" height="30" as="geometry" />
        </mxCell>
        <mxCell id="qmdW4s5YPuSo9OqXjj9D-15" value="&lt;h3&gt;生产关系&lt;/h3&gt;" style="whiteSpace=wrap;html=1;fillColor=#ffe6cc;strokeColor=#d79b00;fontColor=#f2931e;rounded=1;sketch=1;curveFitting=1;jiggle=2;" vertex="1" parent="1">
          <mxGeometry x="414" y="300" width="120" height="30" as="geometry" />
        </mxCell>
        <mxCell id="qmdW4s5YPuSo9OqXjj9D-16" value="劳动资料" style="whiteSpace=wrap;html=1;fillColor=#ffe6cc;strokeColor=#d79b00;fontColor=#f2931e;rounded=1;sketch=1;curveFitting=1;jiggle=2;" vertex="1" parent="1">
          <mxGeometry x="610" y="170" width="120" height="30" as="geometry" />
        </mxCell>
        <mxCell id="qmdW4s5YPuSo9OqXjj9D-18" value="劳动对象" style="whiteSpace=wrap;html=1;fillColor=#ffe6cc;strokeColor=#d79b00;fontColor=#f2931e;rounded=1;sketch=1;curveFitting=1;jiggle=2;" vertex="1" parent="1">
          <mxGeometry x="610" y="220" width="120" height="30" as="geometry" />
        </mxCell>
        <mxCell id="qmdW4s5YPuSo9OqXjj9D-19" value="劳动者" style="whiteSpace=wrap;html=1;fillColor=#ffe6cc;strokeColor=#d79b00;fontColor=#f2931e;rounded=1;sketch=1;curveFitting=1;jiggle=2;" vertex="1" parent="1">
          <mxGeometry x="610" y="270" width="120" height="30" as="geometry" />
        </mxCell>
      </root>
    </mxGraphModel>
  </diagram>
</mxfile>
